<?xml version="1.0" standalone="no"?>
<svg
  width="600"
  height="600"
  viewBox="0 0 600 600"
  xmlns="http://www.w3.org/2000/svg"
>
  <g transform="translate(300,300)">
    <path d="M57.2,-110C74,-78.2,87.5,-62.1,108.1,-42C128.7,-21.9,156.4,2.3,143.5,13.3C130.5,24.4,77,22.4,50.6,32.5C24.2,42.6,24.9,65,14,85.3C3.2,105.5,-19.3,123.8,-41.5,124.8C-63.8,125.9,-85.9,109.8,-120.9,92.1C-155.9,74.5,-203.6,55.3,-195.6,35.1C-187.6,15,-123.8,-6.2,-95.7,-33.7C-67.6,-61.2,-75.2,-94.9,-65.2,-129.9C-55.1,-164.8,-27.6,-200.9,-3.7,-195.2C20.2,-189.4,40.4,-141.8,57.2,-110Z"       
     />
  </g>
</svg>
  