<?xml version="1.0" standalone="no"?>
<svg
  width="600"
  height="600"
  viewBox="0 0 600 600"
  xmlns="http://www.w3.org/2000/svg"
>
  <g transform="translate(300,300)">
    <path d="M79.5,-118.7C102.4,-109,119.9,-85.8,143,-58.5C166.1,-31.1,194.9,0.5,182.7,20.3C170.5,40,117.4,47.8,93.5,88.2C69.7,128.6,75.1,201.5,56.1,220.5C37.1,239.6,-6.4,204.7,-25.1,163.5C-43.8,122.4,-37.8,74.9,-67.4,52.1C-97,29.2,-162.4,31,-194.7,9.2C-227,-12.5,-226.3,-57.8,-198.3,-78.8C-170.4,-99.8,-115.2,-96.6,-77.6,-99.6C-40,-102.6,-20,-111.8,4.1,-118.2C28.3,-124.7,56.6,-128.4,79.5,-118.7Z" fill="#FFB4BC" />
  </g>
</svg>
  