<?xml version="1.0" standalone="no"?>
<svg
  width="600"
  height="600"
  viewBox="0 0 600 600"
  xmlns="http://www.w3.org/2000/svg"
>
  <g transform="translate(300,300)">
    <path d="M71.4,-76C106.4,-88.6,158.3,-92.3,191.7,-72C225.2,-51.7,240.3,-7.5,235.6,34.8C231,77.1,206.5,117.5,167.8,124.4C129.1,131.4,76.1,105.1,33.9,119.1C-8.3,133,-39.6,187.4,-74.6,201.3C-109.6,215.1,-148.1,188.4,-152.8,150.5C-157.4,112.6,-128.2,63.4,-138.2,17.7C-148.2,-28,-197.3,-70.3,-193,-91.6C-188.7,-112.9,-130.8,-113.2,-89.7,-97.8C-48.7,-82.4,-24.3,-51.2,-3.1,-46.4C18.2,-41.7,36.4,-63.3,71.4,-76Z" fill="#FFB4BC" />
  </g>
</svg>
  