<svg xmlns="http://www.w3.org/2000/svg" viewBox="0 0 4240.9 142"><defs><style>.cls-1{isolation:isolate;}.cls-2{fill:#fff;mix-blend-mode:overlay;}</style></defs><title>Asset 11</title><g class="cls-1"><g id="Layer_2" data-name="Layer 2"><g id="Layer_1-2" data-name="Layer 1"><path class="cls-2" d="M4240.9,56V0H0V56c70.68,0,70.68,86,141.37,86s70.68-86,141.36-86,70.68,86,141.36,86,70.68-86,141.37-86,70.68,86,141.36,86,70.69-86,141.37-86,70.68,86,141.36,86,70.68-86,141.36-86,70.69,86,141.37,86S1343,56,1413.64,56s70.68,86,141.36,86,70.68-86,141.37-86,70.68,86,141.36,86,70.68-86,141.36-86,70.68,86,141.36,86,70.69-86,141.37-86,70.68,86,141.36,86,70.68-86,141.36-86,70.68,86,141.36,86,70.68-86,141.36-86,70.68,86,141.36,86S3039.3,56,3110,56s70.68,86,141.37,86S3322,56,3392.71,56s70.68,86,141.36,86,70.68-86,141.37-86,70.68,86,141.36,86,70.68-86,141.37-86,70.68,86,141.36,86S4170.21,56,4240.9,56Z"/></g></g></g></svg>