<svg xmlns="http://www.w3.org/2000/svg" viewBox="0 0 4353.98 317.6"><defs><style>.cls-1{isolation:isolate;}.cls-2{fill:#fff;mix-blend-mode:overlay;}</style></defs><title>Asset 21</title><g class="cls-1"><g id="Layer_2" data-name="Layer 2"><g id="Layer_1-2" data-name="Layer 1"><path class="cls-2" d="M0,217.6V0H4354V217.6c-77.75,0-77.75,100-155.5,100s-77.75-100-155.5-100-77.75,100-155.5,100-77.75-100-155.5-100-77.75,100-155.5,100-77.75-100-155.5-100-77.75,100-155.5,100-77.75-100-155.5-100-77.74,100-155.49,100-77.75-100-155.5-100-77.75,100-155.49,100-77.75-100-155.5-100-77.75,100-155.5,100-77.75-100-155.5-100-77.75,100-155.5,100-77.75-100-155.5-100-77.75,100-155.5,100-77.75-100-155.5-100-77.75,100-155.5,100-77.75-100-155.5-100-77.75,100-155.5,100-77.75-100-155.49-100-77.76,100-155.51,100-77.75-100-155.5-100-77.75,100-155.5,100-77.75-100-155.5-100-77.75,100-155.5,100S77.75,217.6,0,217.6Z"/></g></g></g></svg>