<svg xmlns="http://www.w3.org/2000/svg" viewBox="0 0 4353.98 490.2"><defs><style>.cls-1{isolation:isolate;}.cls-2{fill:#fff;mix-blend-mode:overlay;}</style></defs><title>Asset 31</title><g class="cls-1"><g id="Layer_2" data-name="Layer 2"><g id="Layer_1-2" data-name="Layer 1"><path class="cls-2" d="M4354,382.2V0H0V382.2c77.75,0,77.75,108,155.5,108s77.75-108,155.5-108,77.75,108,155.5,108,77.75-108,155.5-108,77.75,108,155.5,108,77.75-108,155.51-108,77.74,108,155.49,108,77.75-108,155.5-108,77.75,108,155.5,108,77.75-108,155.5-108,77.75,108,155.5,108,77.75-108,155.5-108,77.75,108,155.5,108,77.75-108,155.5-108,77.75,108,155.5,108,77.75-108,155.5-108,77.75,108,155.5,108,77.74-108,155.49-108,77.75,108,155.5,108,77.75-108,155.49-108,77.75,108,155.5,108,77.75-108,155.5-108,77.75,108,155.5,108,77.75-108,155.5-108,77.75,108,155.5,108,77.75-108,155.5-108,77.75,108,155.5,108S4276.23,382.2,4354,382.2Z"/></g></g></g></svg>