<svg xmlns="http://www.w3.org/2000/svg" viewBox="0 0 4326.93 640.8"><defs><style>.cls-1{isolation:isolate;}.cls-2{fill:#fff;mix-blend-mode:overlay;}</style></defs><title>Asset 41</title><g class="cls-1"><g id="Layer_2" data-name="Layer 2"><g id="Layer_1-2" data-name="Layer 1"><path class="cls-2" d="M0,568.8V0H4326.93V568.8c-67.61,0-67.61,72-135.22,72s-67.61-72-135.22-72-67.61,72-135.22,72-67.61-72-135.22-72-67.6,72-135.21,72-67.61-72-135.22-72-67.61,72-135.21,72-67.61-72-135.22-72-67.6,72-135.21,72-67.61-72-135.22-72-67.6,72-135.21,72-67.61-72-135.22-72-67.6,72-135.21,72-67.61-72-135.22-72-67.61,72-135.21,72-67.61-72-135.22-72-67.61,72-135.22,72-67.61-72-135.22-72-67.6,72-135.21,72-67.61-72-135.22-72-67.61,72-135.21,72-67.61-72-135.22-72-67.61,72-135.22,72-67.6-72-135.21-72-67.61,72-135.22,72-67.61-72-135.21-72-67.61,72-135.22,72-67.61-72-135.22-72-67.61,72-135.22,72-67.61-72-135.22-72-67.61,72-135.21,72S67.61,568.8,0,568.8Z"/></g></g></g></svg>