<svg xmlns="http://www.w3.org/2000/svg" viewBox="0 0 4240.9 812.4"><defs><style>.cls-1{isolation:isolate;}.cls-2{fill:#fff;mix-blend-mode:overlay;}</style></defs><title>Asset 51</title><g class="cls-1"><g id="Layer_2" data-name="Layer 2"><g id="Layer_1-2" data-name="Layer 1"><path class="cls-2" d="M4240.9,734.4V0H0V734.4c70.68,0,70.68,78,141.37,78s70.68-78,141.36-78,70.68,78,141.36,78,70.68-78,141.37-78,70.68,78,141.36,78,70.69-78,141.37-78,70.68,78,141.36,78,70.68-78,141.36-78,70.69,78,141.37,78,70.68-78,141.36-78,70.68,78,141.36,78,70.68-78,141.37-78,70.68,78,141.36,78,70.68-78,141.36-78,70.68,78,141.36,78,70.69-78,141.37-78,70.68,78,141.36,78,70.68-78,141.36-78,70.68,78,141.36,78,70.68-78,141.36-78,70.68,78,141.36,78,70.68-78,141.36-78,70.68,78,141.37,78,70.68-78,141.36-78,70.68,78,141.36,78,70.68-78,141.37-78,70.68,78,141.36,78,70.68-78,141.37-78,70.68,78,141.36,78S4170.21,734.4,4240.9,734.4Z"/></g></g></g></svg>