<svg xmlns="http://www.w3.org/2000/svg" viewBox="0 0 4370.79 992"><defs><style>.cls-1{isolation:isolate;}.cls-2{fill:#fff;mix-blend-mode:overlay;}</style></defs><title>Asset 61</title><g class="cls-1"><g id="Layer_2" data-name="Layer 2"><g id="Layer_1-2" data-name="Layer 1"><path class="cls-2" d="M0,892V0H4370.79V892c-84.05,0-84.05,100-168.11,100s-84.05-100-168.1-100-84.06,100-168.11,100-84.06-100-168.11-100-84.06,100-168.11,100-84.05-100-168.11-100-84,100-168.11,100S3110,892,3025.93,892s-84.06,100-168.11,100-84.05-100-168.1-100-84.06,100-168.11,100-84.05-100-168.1-100-84.05,100-168.11,100-84.05-100-168.1-100-84.06,100-168.11,100-84.06-100-168.11-100S1597,992,1513,992s-84-100-168.1-100-84.06,100-168.11,100-84-100-168.11-100-84,100-168.11,100-84-100-168.11-100-84,100-168.11,100S420.27,892,336.21,892s-84,100-168.1,100S84.05,892,0,892Z"/></g></g></g></svg>